<mxfile host="Electron" agent="Mozilla/5.0 (Windows NT 10.0; Win64; x64) AppleWebKit/537.36 (KHTML, like Gecko) draw.io/26.1.1 Chrome/132.0.6834.210 Electron/34.3.3 Safari/537.36" version="26.1.1" pages="2">
  <diagram name="api" id="JLevNw2NstuHYA1dXYyO">
    <mxGraphModel dx="1195" dy="697" grid="1" gridSize="10" guides="1" tooltips="1" connect="1" arrows="1" fold="1" page="1" pageScale="1" pageWidth="850" pageHeight="1100" math="0" shadow="0">
      <root>
        <mxCell id="0" />
        <mxCell id="1" parent="0" />
        <mxCell id="3MsOjD42-JPfpS1VXIFk-1" value="&lt;div&gt;Pod&lt;/div&gt;ui-backend" style="rounded=1;whiteSpace=wrap;html=1;" vertex="1" parent="1">
          <mxGeometry x="1120" y="160" width="120" height="60" as="geometry" />
        </mxCell>
        <mxCell id="3MsOjD42-JPfpS1VXIFk-10" style="edgeStyle=orthogonalEdgeStyle;rounded=0;orthogonalLoop=1;jettySize=auto;html=1;entryX=0;entryY=0.5;entryDx=0;entryDy=0;dashed=1;curved=1;" edge="1" parent="1" source="3MsOjD42-JPfpS1VXIFk-3" target="3MsOjD42-JPfpS1VXIFk-1">
          <mxGeometry relative="1" as="geometry" />
        </mxCell>
        <mxCell id="3MsOjD42-JPfpS1VXIFk-3" value="&lt;div&gt;Service&lt;/div&gt;ui-backend" style="rounded=1;whiteSpace=wrap;html=1;" vertex="1" parent="1">
          <mxGeometry x="920" y="160" width="120" height="60" as="geometry" />
        </mxCell>
        <mxCell id="3MsOjD42-JPfpS1VXIFk-17" style="edgeStyle=orthogonalEdgeStyle;rounded=0;orthogonalLoop=1;jettySize=auto;html=1;entryX=0;entryY=0.5;entryDx=0;entryDy=0;dashed=1;curved=1;" edge="1" parent="1" source="3MsOjD42-JPfpS1VXIFk-4" target="3MsOjD42-JPfpS1VXIFk-15">
          <mxGeometry relative="1" as="geometry" />
        </mxCell>
        <mxCell id="3MsOjD42-JPfpS1VXIFk-18" style="edgeStyle=orthogonalEdgeStyle;rounded=0;orthogonalLoop=1;jettySize=auto;html=1;entryX=0;entryY=0.5;entryDx=0;entryDy=0;dashed=1;curved=1;" edge="1" parent="1" source="3MsOjD42-JPfpS1VXIFk-4" target="3MsOjD42-JPfpS1VXIFk-16">
          <mxGeometry relative="1" as="geometry" />
        </mxCell>
        <mxCell id="3MsOjD42-JPfpS1VXIFk-4" value="&lt;div&gt;Ingress&lt;/div&gt;ui-backend" style="rounded=1;whiteSpace=wrap;html=1;" vertex="1" parent="1">
          <mxGeometry x="400" y="160" width="120" height="60" as="geometry" />
        </mxCell>
        <mxCell id="3MsOjD42-JPfpS1VXIFk-14" style="edgeStyle=orthogonalEdgeStyle;rounded=0;orthogonalLoop=1;jettySize=auto;html=1;entryX=0;entryY=0.5;entryDx=0;entryDy=0;" edge="1" parent="1" source="3MsOjD42-JPfpS1VXIFk-5" target="3MsOjD42-JPfpS1VXIFk-4">
          <mxGeometry relative="1" as="geometry" />
        </mxCell>
        <mxCell id="3MsOjD42-JPfpS1VXIFk-5" value="&lt;div&gt;ui-frontend&lt;/div&gt;" style="rounded=1;whiteSpace=wrap;html=1;" vertex="1" parent="1">
          <mxGeometry x="160" y="160" width="120" height="60" as="geometry" />
        </mxCell>
        <mxCell id="3MsOjD42-JPfpS1VXIFk-6" value="&lt;div&gt;Pod&lt;/div&gt;dumps-collector" style="rounded=1;whiteSpace=wrap;html=1;" vertex="1" parent="1">
          <mxGeometry x="1120" y="320" width="120" height="60" as="geometry" />
        </mxCell>
        <mxCell id="3MsOjD42-JPfpS1VXIFk-12" style="edgeStyle=orthogonalEdgeStyle;rounded=0;orthogonalLoop=1;jettySize=auto;html=1;entryX=0;entryY=0.5;entryDx=0;entryDy=0;curved=1;dashed=1;" edge="1" parent="1" source="3MsOjD42-JPfpS1VXIFk-7" target="3MsOjD42-JPfpS1VXIFk-6">
          <mxGeometry relative="1" as="geometry" />
        </mxCell>
        <mxCell id="3MsOjD42-JPfpS1VXIFk-7" value="&lt;div&gt;Service&lt;/div&gt;dumps-collector" style="rounded=1;whiteSpace=wrap;html=1;" vertex="1" parent="1">
          <mxGeometry x="920" y="320" width="120" height="60" as="geometry" />
        </mxCell>
        <mxCell id="3MsOjD42-JPfpS1VXIFk-20" style="edgeStyle=orthogonalEdgeStyle;rounded=0;orthogonalLoop=1;jettySize=auto;html=1;entryX=0;entryY=0.5;entryDx=0;entryDy=0;dashed=1;curved=1;" edge="1" parent="1" source="3MsOjD42-JPfpS1VXIFk-15" target="3MsOjD42-JPfpS1VXIFk-3">
          <mxGeometry relative="1" as="geometry" />
        </mxCell>
        <mxCell id="3MsOjD42-JPfpS1VXIFk-15" value="&lt;div&gt;- path: /&lt;/div&gt;&lt;div&gt;&amp;nbsp; pathType: Prefix&lt;/div&gt;&lt;div&gt;&amp;nbsp; backend:&lt;/div&gt;&lt;div&gt;&amp;nbsp; &amp;nbsp; service:&lt;/div&gt;&lt;div&gt;&amp;nbsp; &amp;nbsp; &amp;nbsp; name: ui&lt;/div&gt;&lt;div&gt;&amp;nbsp; &amp;nbsp; &amp;nbsp; port:&lt;/div&gt;&lt;div&gt;&amp;nbsp; &amp;nbsp; &amp;nbsp; &amp;nbsp; name: http&lt;/div&gt;" style="text;html=1;align=left;verticalAlign=top;whiteSpace=wrap;rounded=0;fontFamily=Tahoma;fillColor=default;strokeColor=default;dashed=1;" vertex="1" parent="1">
          <mxGeometry x="620" y="135" width="160" height="110" as="geometry" />
        </mxCell>
        <mxCell id="3MsOjD42-JPfpS1VXIFk-19" style="edgeStyle=orthogonalEdgeStyle;rounded=0;orthogonalLoop=1;jettySize=auto;html=1;entryX=0;entryY=0.5;entryDx=0;entryDy=0;dashed=1;curved=1;" edge="1" parent="1" source="3MsOjD42-JPfpS1VXIFk-16" target="3MsOjD42-JPfpS1VXIFk-7">
          <mxGeometry relative="1" as="geometry" />
        </mxCell>
        <mxCell id="3MsOjD42-JPfpS1VXIFk-16" value="&lt;div&gt;- path:&amp;nbsp;&lt;span style=&quot;background-color: transparent; color: light-dark(rgb(0, 0, 0), rgb(255, 255, 255));&quot;&gt;/esc/downloadHeapDump&lt;/span&gt;&lt;/div&gt;&lt;div&gt;&amp;nbsp; pathType: Prefix&lt;/div&gt;&lt;div&gt;&amp;nbsp; backend:&lt;/div&gt;&lt;div&gt;&amp;nbsp; &amp;nbsp; service:&lt;/div&gt;&lt;div&gt;&amp;nbsp; &amp;nbsp; &amp;nbsp; name: cloud-profiler-dumps-collector&lt;/div&gt;&lt;div&gt;&amp;nbsp; &amp;nbsp; &amp;nbsp; port:&lt;/div&gt;&lt;div&gt;&amp;nbsp; &amp;nbsp; &amp;nbsp; &amp;nbsp; name: http&lt;/div&gt;" style="text;html=1;align=left;verticalAlign=top;whiteSpace=wrap;rounded=0;fontFamily=Tahoma;fillColor=default;strokeColor=default;dashed=1;" vertex="1" parent="1">
          <mxGeometry x="620" y="295" width="230" height="110" as="geometry" />
        </mxCell>
      </root>
    </mxGraphModel>
  </diagram>
  <diagram id="pmCGYdz97N0A7QVVgKxX" name="db schema">
    <mxGraphModel dx="2045" dy="1797" grid="1" gridSize="10" guides="1" tooltips="1" connect="1" arrows="1" fold="1" page="1" pageScale="1" pageWidth="850" pageHeight="1100" math="0" shadow="0">
      <root>
        <mxCell id="0" />
        <mxCell id="1" parent="0" />
        <mxCell id="14IpDD7Xq0jnJkIsOJpB-98" value="" style="rounded=0;whiteSpace=wrap;html=1;fillColor=#dae8fc;strokeColor=#6c8ebf;opacity=30;" vertex="1" parent="1">
          <mxGeometry x="-220" y="-80" width="960" height="520" as="geometry" />
        </mxCell>
        <mxCell id="14IpDD7Xq0jnJkIsOJpB-1" value="dump_pods" style="shape=table;startSize=30;container=1;collapsible=1;childLayout=tableLayout;fixedRows=1;rowLines=0;align=center;resizeLast=1;html=1;fillColor=#dae8fc;strokeColor=#6c8ebf;fontStyle=1;fontSize=16;" vertex="1" parent="1">
          <mxGeometry width="280" height="210" as="geometry" />
        </mxCell>
        <mxCell id="14IpDD7Xq0jnJkIsOJpB-23" value="" style="shape=tableRow;horizontal=0;startSize=0;swimlaneHead=0;swimlaneBody=0;fillColor=none;collapsible=0;dropTarget=0;points=[[0,0.5],[1,0.5]];portConstraint=eastwest;top=0;left=0;right=0;bottom=1;fontStyle=0;fontSize=14;strokeColor=#6C8EBF;" vertex="1" parent="14IpDD7Xq0jnJkIsOJpB-1">
          <mxGeometry y="30" width="280" height="30" as="geometry" />
        </mxCell>
        <mxCell id="14IpDD7Xq0jnJkIsOJpB-24" value="&lt;b&gt;PK&lt;/b&gt;" style="shape=partialRectangle;connectable=0;fillColor=none;top=0;left=0;bottom=0;right=0;editable=1;overflow=hidden;whiteSpace=wrap;html=1;fontStyle=0;fontSize=14;" vertex="1" parent="14IpDD7Xq0jnJkIsOJpB-23">
          <mxGeometry width="30" height="30" as="geometry">
            <mxRectangle width="30" height="30" as="alternateBounds" />
          </mxGeometry>
        </mxCell>
        <mxCell id="14IpDD7Xq0jnJkIsOJpB-25" value="id uuid" style="shape=partialRectangle;connectable=0;fillColor=none;top=0;left=0;bottom=0;right=0;align=left;spacingLeft=6;overflow=hidden;whiteSpace=wrap;fontFamily=Helvetica;fontStyle=1;fontSize=14;" vertex="1" parent="14IpDD7Xq0jnJkIsOJpB-23">
          <mxGeometry x="30" width="250" height="30" as="geometry">
            <mxRectangle width="250" height="30" as="alternateBounds" />
          </mxGeometry>
        </mxCell>
        <mxCell id="14IpDD7Xq0jnJkIsOJpB-2" value="" style="shape=tableRow;horizontal=0;startSize=0;swimlaneHead=0;swimlaneBody=0;fillColor=none;collapsible=0;dropTarget=0;points=[[0,0.5],[1,0.5]];portConstraint=eastwest;top=0;left=0;right=0;bottom=0;fontStyle=0;fontSize=14;" vertex="1" parent="14IpDD7Xq0jnJkIsOJpB-1">
          <mxGeometry y="60" width="280" height="30" as="geometry" />
        </mxCell>
        <mxCell id="14IpDD7Xq0jnJkIsOJpB-3" value="" style="shape=partialRectangle;connectable=0;fillColor=none;top=0;left=0;bottom=0;right=0;fontStyle=1;overflow=hidden;whiteSpace=wrap;html=1;fontSize=14;" vertex="1" parent="14IpDD7Xq0jnJkIsOJpB-2">
          <mxGeometry width="30" height="30" as="geometry">
            <mxRectangle width="30" height="30" as="alternateBounds" />
          </mxGeometry>
        </mxCell>
        <mxCell id="14IpDD7Xq0jnJkIsOJpB-4" value="namespace    text" style="shape=partialRectangle;connectable=0;fillColor=none;top=0;left=0;bottom=0;right=0;align=left;spacingLeft=6;fontStyle=0;overflow=hidden;whiteSpace=wrap;fontFamily=Helvetica;fontSize=14;" vertex="1" parent="14IpDD7Xq0jnJkIsOJpB-2">
          <mxGeometry x="30" width="250" height="30" as="geometry">
            <mxRectangle width="250" height="30" as="alternateBounds" />
          </mxGeometry>
        </mxCell>
        <mxCell id="14IpDD7Xq0jnJkIsOJpB-5" style="shape=tableRow;horizontal=0;startSize=0;swimlaneHead=0;swimlaneBody=0;fillColor=none;collapsible=0;dropTarget=0;points=[[0,0.5],[1,0.5]];portConstraint=eastwest;top=0;left=0;right=0;bottom=0;fontStyle=0;fontSize=14;" vertex="1" parent="14IpDD7Xq0jnJkIsOJpB-1">
          <mxGeometry y="90" width="280" height="30" as="geometry" />
        </mxCell>
        <mxCell id="14IpDD7Xq0jnJkIsOJpB-6" value="" style="shape=partialRectangle;connectable=0;fillColor=none;top=0;left=0;bottom=0;right=0;fontStyle=0;overflow=hidden;whiteSpace=wrap;html=1;fontSize=14;" vertex="1" parent="14IpDD7Xq0jnJkIsOJpB-5">
          <mxGeometry width="30" height="30" as="geometry">
            <mxRectangle width="30" height="30" as="alternateBounds" />
          </mxGeometry>
        </mxCell>
        <mxCell id="14IpDD7Xq0jnJkIsOJpB-7" value="service_name text" style="shape=partialRectangle;connectable=0;fillColor=none;top=0;left=0;bottom=0;right=0;align=left;spacingLeft=6;fontStyle=0;overflow=hidden;whiteSpace=wrap;fontFamily=Helvetica;fontSize=14;" vertex="1" parent="14IpDD7Xq0jnJkIsOJpB-5">
          <mxGeometry x="30" width="250" height="30" as="geometry">
            <mxRectangle width="250" height="30" as="alternateBounds" />
          </mxGeometry>
        </mxCell>
        <mxCell id="14IpDD7Xq0jnJkIsOJpB-8" value="" style="shape=tableRow;horizontal=0;startSize=0;swimlaneHead=0;swimlaneBody=0;fillColor=none;collapsible=0;dropTarget=0;points=[[0,0.5],[1,0.5]];portConstraint=eastwest;top=0;left=0;right=0;bottom=0;fontStyle=0;fontSize=14;swimlaneLine=1;" vertex="1" parent="14IpDD7Xq0jnJkIsOJpB-1">
          <mxGeometry y="120" width="280" height="30" as="geometry" />
        </mxCell>
        <mxCell id="14IpDD7Xq0jnJkIsOJpB-9" value="" style="shape=partialRectangle;connectable=0;fillColor=none;top=0;left=0;bottom=0;right=0;editable=1;overflow=hidden;whiteSpace=wrap;html=1;fontStyle=0;fontSize=14;" vertex="1" parent="14IpDD7Xq0jnJkIsOJpB-8">
          <mxGeometry width="30" height="30" as="geometry">
            <mxRectangle width="30" height="30" as="alternateBounds" />
          </mxGeometry>
        </mxCell>
        <mxCell id="14IpDD7Xq0jnJkIsOJpB-10" value="pod_name     text" style="shape=partialRectangle;connectable=0;fillColor=none;top=0;left=0;bottom=0;right=0;align=left;spacingLeft=6;overflow=hidden;fontFamily=Helvetica;fontStyle=0;whiteSpace=wrap;fontSize=14;" vertex="1" parent="14IpDD7Xq0jnJkIsOJpB-8">
          <mxGeometry x="30" width="250" height="30" as="geometry">
            <mxRectangle width="250" height="30" as="alternateBounds" />
          </mxGeometry>
        </mxCell>
        <mxCell id="14IpDD7Xq0jnJkIsOJpB-11" value="" style="shape=tableRow;horizontal=0;startSize=0;swimlaneHead=0;swimlaneBody=0;fillColor=none;collapsible=0;dropTarget=0;points=[[0,0.5],[1,0.5]];portConstraint=eastwest;top=0;left=0;right=0;bottom=0;fontStyle=0;fontSize=14;" vertex="1" parent="14IpDD7Xq0jnJkIsOJpB-1">
          <mxGeometry y="150" width="280" height="30" as="geometry" />
        </mxCell>
        <mxCell id="14IpDD7Xq0jnJkIsOJpB-12" value="" style="shape=partialRectangle;connectable=0;fillColor=none;top=0;left=0;bottom=0;right=0;editable=1;overflow=hidden;whiteSpace=wrap;html=1;fontStyle=0;fontSize=14;" vertex="1" parent="14IpDD7Xq0jnJkIsOJpB-11">
          <mxGeometry width="30" height="30" as="geometry">
            <mxRectangle width="30" height="30" as="alternateBounds" />
          </mxGeometry>
        </mxCell>
        <mxCell id="14IpDD7Xq0jnJkIsOJpB-13" value="restart_time timestamp" style="shape=partialRectangle;connectable=0;fillColor=none;top=0;left=0;bottom=0;right=0;align=left;spacingLeft=6;overflow=hidden;whiteSpace=wrap;fontFamily=Helvetica;strokeColor=default;fontStyle=0;fontSize=14;" vertex="1" parent="14IpDD7Xq0jnJkIsOJpB-11">
          <mxGeometry x="30" width="250" height="30" as="geometry">
            <mxRectangle width="250" height="30" as="alternateBounds" />
          </mxGeometry>
        </mxCell>
        <mxCell id="14IpDD7Xq0jnJkIsOJpB-14" style="shape=tableRow;horizontal=0;startSize=0;swimlaneHead=0;swimlaneBody=0;fillColor=none;collapsible=0;dropTarget=0;points=[[0,0.5],[1,0.5]];portConstraint=eastwest;top=0;left=0;right=0;bottom=0;fontStyle=0;fontSize=14;" vertex="1" parent="14IpDD7Xq0jnJkIsOJpB-1">
          <mxGeometry y="180" width="280" height="30" as="geometry" />
        </mxCell>
        <mxCell id="14IpDD7Xq0jnJkIsOJpB-15" style="shape=partialRectangle;connectable=0;fillColor=none;top=0;left=0;bottom=0;right=0;editable=1;overflow=hidden;whiteSpace=wrap;html=1;fontStyle=0;fontSize=14;" vertex="1" parent="14IpDD7Xq0jnJkIsOJpB-14">
          <mxGeometry width="30" height="30" as="geometry">
            <mxRectangle width="30" height="30" as="alternateBounds" />
          </mxGeometry>
        </mxCell>
        <mxCell id="14IpDD7Xq0jnJkIsOJpB-16" value="last_active_time timestamp" style="shape=partialRectangle;connectable=0;fillColor=none;top=0;left=0;bottom=0;right=0;align=left;spacingLeft=6;overflow=hidden;whiteSpace=wrap;fontFamily=Helvetica;fontStyle=0;fontSize=14;" vertex="1" parent="14IpDD7Xq0jnJkIsOJpB-14">
          <mxGeometry x="30" width="250" height="30" as="geometry">
            <mxRectangle width="250" height="30" as="alternateBounds" />
          </mxGeometry>
        </mxCell>
        <mxCell id="14IpDD7Xq0jnJkIsOJpB-26" value="heap_dumps" style="shape=table;startSize=30;container=1;collapsible=1;childLayout=tableLayout;fixedRows=1;rowLines=0;align=center;resizeLast=1;html=1;fillColor=#dae8fc;strokeColor=#6c8ebf;fontStyle=1;fontSize=16;" vertex="1" parent="1">
          <mxGeometry x="440" width="280" height="150" as="geometry" />
        </mxCell>
        <mxCell id="14IpDD7Xq0jnJkIsOJpB-27" value="" style="shape=tableRow;horizontal=0;startSize=0;swimlaneHead=0;swimlaneBody=0;fillColor=none;collapsible=0;dropTarget=0;points=[[0,0.5],[1,0.5]];portConstraint=eastwest;top=0;left=0;right=0;bottom=1;fontStyle=0;fontSize=14;strokeColor=#6C8EBF;" vertex="1" parent="14IpDD7Xq0jnJkIsOJpB-26">
          <mxGeometry y="30" width="280" height="30" as="geometry" />
        </mxCell>
        <mxCell id="14IpDD7Xq0jnJkIsOJpB-28" value="&lt;b&gt;PK&lt;/b&gt;" style="shape=partialRectangle;connectable=0;fillColor=none;top=0;left=0;bottom=0;right=0;editable=1;overflow=hidden;whiteSpace=wrap;html=1;fontStyle=0;fontSize=14;" vertex="1" parent="14IpDD7Xq0jnJkIsOJpB-27">
          <mxGeometry width="30" height="30" as="geometry">
            <mxRectangle width="30" height="30" as="alternateBounds" />
          </mxGeometry>
        </mxCell>
        <mxCell id="14IpDD7Xq0jnJkIsOJpB-29" value="handle text" style="shape=partialRectangle;connectable=0;fillColor=none;top=0;left=0;bottom=0;right=0;align=left;spacingLeft=6;overflow=hidden;whiteSpace=wrap;fontFamily=Helvetica;fontStyle=1;fontSize=14;" vertex="1" parent="14IpDD7Xq0jnJkIsOJpB-27">
          <mxGeometry x="30" width="250" height="30" as="geometry">
            <mxRectangle width="250" height="30" as="alternateBounds" />
          </mxGeometry>
        </mxCell>
        <mxCell id="14IpDD7Xq0jnJkIsOJpB-36" value="" style="shape=tableRow;horizontal=0;startSize=0;swimlaneHead=0;swimlaneBody=0;fillColor=none;collapsible=0;dropTarget=0;points=[[0,0.5],[1,0.5]];portConstraint=eastwest;top=0;left=0;right=0;bottom=1;fontStyle=0;fontSize=14;swimlaneLine=1;strokeColor=#6C8EBF;" vertex="1" parent="14IpDD7Xq0jnJkIsOJpB-26">
          <mxGeometry y="60" width="280" height="30" as="geometry" />
        </mxCell>
        <mxCell id="14IpDD7Xq0jnJkIsOJpB-37" value="&lt;b&gt;FK&lt;/b&gt;" style="shape=partialRectangle;connectable=0;fillColor=none;top=0;left=0;bottom=0;right=0;editable=1;overflow=hidden;whiteSpace=wrap;html=1;fontStyle=0;fontSize=14;" vertex="1" parent="14IpDD7Xq0jnJkIsOJpB-36">
          <mxGeometry width="30" height="30" as="geometry">
            <mxRectangle width="30" height="30" as="alternateBounds" />
          </mxGeometry>
        </mxCell>
        <mxCell id="14IpDD7Xq0jnJkIsOJpB-38" value="pod_id uuid" style="shape=partialRectangle;connectable=0;fillColor=none;top=0;left=0;bottom=0;right=0;align=left;spacingLeft=6;overflow=hidden;fontFamily=Helvetica;fontStyle=1;whiteSpace=wrap;fontSize=14;" vertex="1" parent="14IpDD7Xq0jnJkIsOJpB-36">
          <mxGeometry x="30" width="250" height="30" as="geometry">
            <mxRectangle width="250" height="30" as="alternateBounds" />
          </mxGeometry>
        </mxCell>
        <mxCell id="14IpDD7Xq0jnJkIsOJpB-39" value="" style="shape=tableRow;horizontal=0;startSize=0;swimlaneHead=0;swimlaneBody=0;fillColor=none;collapsible=0;dropTarget=0;points=[[0,0.5],[1,0.5]];portConstraint=eastwest;top=0;left=0;right=0;bottom=0;fontStyle=0;fontSize=14;" vertex="1" parent="14IpDD7Xq0jnJkIsOJpB-26">
          <mxGeometry y="90" width="280" height="30" as="geometry" />
        </mxCell>
        <mxCell id="14IpDD7Xq0jnJkIsOJpB-40" value="" style="shape=partialRectangle;connectable=0;fillColor=none;top=0;left=0;bottom=0;right=0;editable=1;overflow=hidden;whiteSpace=wrap;html=1;fontStyle=0;fontSize=14;" vertex="1" parent="14IpDD7Xq0jnJkIsOJpB-39">
          <mxGeometry width="30" height="30" as="geometry">
            <mxRectangle width="30" height="30" as="alternateBounds" />
          </mxGeometry>
        </mxCell>
        <mxCell id="14IpDD7Xq0jnJkIsOJpB-41" value="creation_time timestamp" style="shape=partialRectangle;connectable=0;fillColor=none;top=0;left=0;bottom=0;right=0;align=left;spacingLeft=6;overflow=hidden;whiteSpace=wrap;fontFamily=Helvetica;strokeColor=default;fontStyle=0;fontSize=14;" vertex="1" parent="14IpDD7Xq0jnJkIsOJpB-39">
          <mxGeometry x="30" width="250" height="30" as="geometry">
            <mxRectangle width="250" height="30" as="alternateBounds" />
          </mxGeometry>
        </mxCell>
        <mxCell id="14IpDD7Xq0jnJkIsOJpB-42" style="shape=tableRow;horizontal=0;startSize=0;swimlaneHead=0;swimlaneBody=0;fillColor=none;collapsible=0;dropTarget=0;points=[[0,0.5],[1,0.5]];portConstraint=eastwest;top=0;left=0;right=0;bottom=0;fontStyle=0;fontSize=14;" vertex="1" parent="14IpDD7Xq0jnJkIsOJpB-26">
          <mxGeometry y="120" width="280" height="30" as="geometry" />
        </mxCell>
        <mxCell id="14IpDD7Xq0jnJkIsOJpB-43" style="shape=partialRectangle;connectable=0;fillColor=none;top=0;left=0;bottom=0;right=0;editable=1;overflow=hidden;whiteSpace=wrap;html=1;fontStyle=0;fontSize=14;" vertex="1" parent="14IpDD7Xq0jnJkIsOJpB-42">
          <mxGeometry width="30" height="30" as="geometry">
            <mxRectangle width="30" height="30" as="alternateBounds" />
          </mxGeometry>
        </mxCell>
        <mxCell id="14IpDD7Xq0jnJkIsOJpB-44" value="file_size integer" style="shape=partialRectangle;connectable=0;fillColor=none;top=0;left=0;bottom=0;right=0;align=left;spacingLeft=6;overflow=hidden;whiteSpace=wrap;fontFamily=Helvetica;fontStyle=0;fontSize=14;" vertex="1" parent="14IpDD7Xq0jnJkIsOJpB-42">
          <mxGeometry x="30" width="250" height="30" as="geometry">
            <mxRectangle width="250" height="30" as="alternateBounds" />
          </mxGeometry>
        </mxCell>
        <mxCell id="14IpDD7Xq0jnJkIsOJpB-45" style="edgeStyle=orthogonalEdgeStyle;rounded=0;orthogonalLoop=1;jettySize=auto;html=1;entryX=0;entryY=0.5;entryDx=0;entryDy=0;startArrow=ERzeroToMany;startFill=0;endArrow=ERzeroToMany;endFill=0;" edge="1" parent="1" source="14IpDD7Xq0jnJkIsOJpB-23" target="14IpDD7Xq0jnJkIsOJpB-36">
          <mxGeometry relative="1" as="geometry" />
        </mxCell>
        <mxCell id="14IpDD7Xq0jnJkIsOJpB-46" value="dump_objects_&amp;lt;timestamp&amp;gt;" style="shape=table;startSize=30;container=1;collapsible=1;childLayout=tableLayout;fixedRows=1;rowLines=0;align=center;resizeLast=1;html=1;fillColor=#dae8fc;strokeColor=#6c8ebf;fontStyle=1;fontSize=16;" vertex="1" parent="1">
          <mxGeometry x="440" y="240" width="280" height="180" as="geometry" />
        </mxCell>
        <mxCell id="14IpDD7Xq0jnJkIsOJpB-47" value="" style="shape=tableRow;horizontal=0;startSize=0;swimlaneHead=0;swimlaneBody=0;fillColor=none;collapsible=0;dropTarget=0;points=[[0,0.5],[1,0.5]];portConstraint=eastwest;top=0;left=0;right=0;bottom=1;fontStyle=0;fontSize=14;strokeColor=#6C8EBF;" vertex="1" parent="14IpDD7Xq0jnJkIsOJpB-46">
          <mxGeometry y="30" width="280" height="30" as="geometry" />
        </mxCell>
        <mxCell id="14IpDD7Xq0jnJkIsOJpB-48" value="&lt;b&gt;PK&lt;/b&gt;" style="shape=partialRectangle;connectable=0;fillColor=none;top=0;left=0;bottom=0;right=0;editable=1;overflow=hidden;whiteSpace=wrap;html=1;fontStyle=0;fontSize=14;" vertex="1" parent="14IpDD7Xq0jnJkIsOJpB-47">
          <mxGeometry width="30" height="30" as="geometry">
            <mxRectangle width="30" height="30" as="alternateBounds" />
          </mxGeometry>
        </mxCell>
        <mxCell id="14IpDD7Xq0jnJkIsOJpB-49" value="id uuid" style="shape=partialRectangle;connectable=0;fillColor=none;top=0;left=0;bottom=0;right=0;align=left;spacingLeft=6;overflow=hidden;whiteSpace=wrap;fontFamily=Helvetica;fontStyle=1;fontSize=14;" vertex="1" parent="14IpDD7Xq0jnJkIsOJpB-47">
          <mxGeometry x="30" width="250" height="30" as="geometry">
            <mxRectangle width="250" height="30" as="alternateBounds" />
          </mxGeometry>
        </mxCell>
        <mxCell id="14IpDD7Xq0jnJkIsOJpB-50" value="" style="shape=tableRow;horizontal=0;startSize=0;swimlaneHead=0;swimlaneBody=0;fillColor=none;collapsible=0;dropTarget=0;points=[[0,0.5],[1,0.5]];portConstraint=eastwest;top=0;left=0;right=0;bottom=1;fontStyle=0;fontSize=14;swimlaneLine=1;strokeColor=#6C8EBF;" vertex="1" parent="14IpDD7Xq0jnJkIsOJpB-46">
          <mxGeometry y="60" width="280" height="30" as="geometry" />
        </mxCell>
        <mxCell id="14IpDD7Xq0jnJkIsOJpB-51" value="&lt;b&gt;FK&lt;/b&gt;" style="shape=partialRectangle;connectable=0;fillColor=none;top=0;left=0;bottom=0;right=0;editable=1;overflow=hidden;whiteSpace=wrap;html=1;fontStyle=0;fontSize=14;" vertex="1" parent="14IpDD7Xq0jnJkIsOJpB-50">
          <mxGeometry width="30" height="30" as="geometry">
            <mxRectangle width="30" height="30" as="alternateBounds" />
          </mxGeometry>
        </mxCell>
        <mxCell id="14IpDD7Xq0jnJkIsOJpB-52" value="pod_id uuid" style="shape=partialRectangle;connectable=0;fillColor=none;top=0;left=0;bottom=0;right=0;align=left;spacingLeft=6;overflow=hidden;fontFamily=Helvetica;fontStyle=1;whiteSpace=wrap;fontSize=14;" vertex="1" parent="14IpDD7Xq0jnJkIsOJpB-50">
          <mxGeometry x="30" width="250" height="30" as="geometry">
            <mxRectangle width="250" height="30" as="alternateBounds" />
          </mxGeometry>
        </mxCell>
        <mxCell id="14IpDD7Xq0jnJkIsOJpB-53" value="" style="shape=tableRow;horizontal=0;startSize=0;swimlaneHead=0;swimlaneBody=0;fillColor=none;collapsible=0;dropTarget=0;points=[[0,0.5],[1,0.5]];portConstraint=eastwest;top=0;left=0;right=0;bottom=0;fontStyle=0;fontSize=14;" vertex="1" parent="14IpDD7Xq0jnJkIsOJpB-46">
          <mxGeometry y="90" width="280" height="30" as="geometry" />
        </mxCell>
        <mxCell id="14IpDD7Xq0jnJkIsOJpB-54" value="" style="shape=partialRectangle;connectable=0;fillColor=none;top=0;left=0;bottom=0;right=0;editable=1;overflow=hidden;whiteSpace=wrap;html=1;fontStyle=0;fontSize=14;" vertex="1" parent="14IpDD7Xq0jnJkIsOJpB-53">
          <mxGeometry width="30" height="30" as="geometry">
            <mxRectangle width="30" height="30" as="alternateBounds" />
          </mxGeometry>
        </mxCell>
        <mxCell id="14IpDD7Xq0jnJkIsOJpB-55" value="creation_time timestamp" style="shape=partialRectangle;connectable=0;fillColor=none;top=0;left=0;bottom=0;right=0;align=left;spacingLeft=6;overflow=hidden;whiteSpace=wrap;fontFamily=Helvetica;strokeColor=default;fontStyle=0;fontSize=14;" vertex="1" parent="14IpDD7Xq0jnJkIsOJpB-53">
          <mxGeometry x="30" width="250" height="30" as="geometry">
            <mxRectangle width="250" height="30" as="alternateBounds" />
          </mxGeometry>
        </mxCell>
        <mxCell id="14IpDD7Xq0jnJkIsOJpB-56" style="shape=tableRow;horizontal=0;startSize=0;swimlaneHead=0;swimlaneBody=0;fillColor=none;collapsible=0;dropTarget=0;points=[[0,0.5],[1,0.5]];portConstraint=eastwest;top=0;left=0;right=0;bottom=0;fontStyle=0;fontSize=14;" vertex="1" parent="14IpDD7Xq0jnJkIsOJpB-46">
          <mxGeometry y="120" width="280" height="30" as="geometry" />
        </mxCell>
        <mxCell id="14IpDD7Xq0jnJkIsOJpB-57" style="shape=partialRectangle;connectable=0;fillColor=none;top=0;left=0;bottom=0;right=0;editable=1;overflow=hidden;whiteSpace=wrap;html=1;fontStyle=0;fontSize=14;" vertex="1" parent="14IpDD7Xq0jnJkIsOJpB-56">
          <mxGeometry width="30" height="30" as="geometry">
            <mxRectangle width="30" height="30" as="alternateBounds" />
          </mxGeometry>
        </mxCell>
        <mxCell id="14IpDD7Xq0jnJkIsOJpB-58" value="file_size integer" style="shape=partialRectangle;connectable=0;fillColor=none;top=0;left=0;bottom=0;right=0;align=left;spacingLeft=6;overflow=hidden;whiteSpace=wrap;fontFamily=Helvetica;fontStyle=0;fontSize=14;" vertex="1" parent="14IpDD7Xq0jnJkIsOJpB-56">
          <mxGeometry x="30" width="250" height="30" as="geometry">
            <mxRectangle width="250" height="30" as="alternateBounds" />
          </mxGeometry>
        </mxCell>
        <mxCell id="14IpDD7Xq0jnJkIsOJpB-59" style="shape=tableRow;horizontal=0;startSize=0;swimlaneHead=0;swimlaneBody=0;fillColor=none;collapsible=0;dropTarget=0;points=[[0,0.5],[1,0.5]];portConstraint=eastwest;top=0;left=0;right=0;bottom=0;fontStyle=0;fontSize=14;" vertex="1" parent="14IpDD7Xq0jnJkIsOJpB-46">
          <mxGeometry y="150" width="280" height="30" as="geometry" />
        </mxCell>
        <mxCell id="14IpDD7Xq0jnJkIsOJpB-60" style="shape=partialRectangle;connectable=0;fillColor=none;top=0;left=0;bottom=0;right=0;editable=1;overflow=hidden;whiteSpace=wrap;html=1;fontStyle=0;fontSize=14;" vertex="1" parent="14IpDD7Xq0jnJkIsOJpB-59">
          <mxGeometry width="30" height="30" as="geometry">
            <mxRectangle width="30" height="30" as="alternateBounds" />
          </mxGeometry>
        </mxCell>
        <mxCell id="14IpDD7Xq0jnJkIsOJpB-61" value="dump_type dump_object_type" style="shape=partialRectangle;connectable=0;fillColor=none;top=0;left=0;bottom=0;right=0;align=left;spacingLeft=6;overflow=hidden;whiteSpace=wrap;fontFamily=Helvetica;fontStyle=0;fontSize=14;" vertex="1" parent="14IpDD7Xq0jnJkIsOJpB-59">
          <mxGeometry x="30" width="250" height="30" as="geometry">
            <mxRectangle width="250" height="30" as="alternateBounds" />
          </mxGeometry>
        </mxCell>
        <mxCell id="14IpDD7Xq0jnJkIsOJpB-62" style="edgeStyle=orthogonalEdgeStyle;rounded=0;orthogonalLoop=1;jettySize=auto;html=1;entryX=0;entryY=0.5;entryDx=0;entryDy=0;endArrow=ERzeroToMany;endFill=0;startArrow=ERzeroToMany;startFill=0;" edge="1" parent="1" source="14IpDD7Xq0jnJkIsOJpB-23" target="14IpDD7Xq0jnJkIsOJpB-50">
          <mxGeometry relative="1" as="geometry" />
        </mxCell>
        <mxCell id="14IpDD7Xq0jnJkIsOJpB-63" value="timeline" style="shape=table;startSize=30;container=1;collapsible=1;childLayout=tableLayout;fixedRows=1;rowLines=0;align=center;resizeLast=1;html=1;fillColor=#dae8fc;strokeColor=#6c8ebf;fontStyle=1;fontSize=16;" vertex="1" parent="1">
          <mxGeometry y="250" width="280" height="90" as="geometry" />
        </mxCell>
        <mxCell id="14IpDD7Xq0jnJkIsOJpB-64" value="" style="shape=tableRow;horizontal=0;startSize=0;swimlaneHead=0;swimlaneBody=0;fillColor=none;collapsible=0;dropTarget=0;points=[[0,0.5],[1,0.5]];portConstraint=eastwest;top=0;left=0;right=0;bottom=1;fontStyle=0;fontSize=14;strokeColor=#6C8EBF;" vertex="1" parent="14IpDD7Xq0jnJkIsOJpB-63">
          <mxGeometry y="30" width="280" height="30" as="geometry" />
        </mxCell>
        <mxCell id="14IpDD7Xq0jnJkIsOJpB-65" value="&lt;b&gt;PK&lt;/b&gt;" style="shape=partialRectangle;connectable=0;fillColor=none;top=0;left=0;bottom=0;right=0;editable=1;overflow=hidden;whiteSpace=wrap;html=1;fontStyle=0;fontSize=14;" vertex="1" parent="14IpDD7Xq0jnJkIsOJpB-64">
          <mxGeometry width="30" height="30" as="geometry">
            <mxRectangle width="30" height="30" as="alternateBounds" />
          </mxGeometry>
        </mxCell>
        <mxCell id="14IpDD7Xq0jnJkIsOJpB-66" value="ts_hour timestamp" style="shape=partialRectangle;connectable=0;fillColor=none;top=0;left=0;bottom=0;right=0;align=left;spacingLeft=6;overflow=hidden;whiteSpace=wrap;fontFamily=Helvetica;fontStyle=1;fontSize=14;" vertex="1" parent="14IpDD7Xq0jnJkIsOJpB-64">
          <mxGeometry x="30" width="250" height="30" as="geometry">
            <mxRectangle width="250" height="30" as="alternateBounds" />
          </mxGeometry>
        </mxCell>
        <mxCell id="14IpDD7Xq0jnJkIsOJpB-67" value="" style="shape=tableRow;horizontal=0;startSize=0;swimlaneHead=0;swimlaneBody=0;fillColor=none;collapsible=0;dropTarget=0;points=[[0,0.5],[1,0.5]];portConstraint=eastwest;top=0;left=0;right=0;bottom=0;fontStyle=0;fontSize=14;swimlaneLine=1;" vertex="1" parent="14IpDD7Xq0jnJkIsOJpB-63">
          <mxGeometry y="60" width="280" height="30" as="geometry" />
        </mxCell>
        <mxCell id="14IpDD7Xq0jnJkIsOJpB-68" value="" style="shape=partialRectangle;connectable=0;fillColor=none;top=0;left=0;bottom=0;right=0;editable=1;overflow=hidden;whiteSpace=wrap;html=1;fontStyle=0;fontSize=14;" vertex="1" parent="14IpDD7Xq0jnJkIsOJpB-67">
          <mxGeometry width="30" height="30" as="geometry">
            <mxRectangle width="30" height="30" as="alternateBounds" />
          </mxGeometry>
        </mxCell>
        <mxCell id="14IpDD7Xq0jnJkIsOJpB-69" value="status timeline_status" style="shape=partialRectangle;connectable=0;fillColor=none;top=0;left=0;bottom=0;right=0;align=left;spacingLeft=6;overflow=hidden;fontFamily=Helvetica;fontStyle=0;whiteSpace=wrap;fontSize=14;" vertex="1" parent="14IpDD7Xq0jnJkIsOJpB-67">
          <mxGeometry x="30" width="250" height="30" as="geometry">
            <mxRectangle width="250" height="30" as="alternateBounds" />
          </mxGeometry>
        </mxCell>
        <mxCell id="14IpDD7Xq0jnJkIsOJpB-76" value="timeline_status" style="shape=table;startSize=30;container=1;collapsible=1;childLayout=tableLayout;fixedRows=1;rowLines=0;align=center;resizeLast=1;html=1;fillColor=#e1d5e7;strokeColor=#9673a6;fontStyle=1;fontSize=16;" vertex="1" parent="1">
          <mxGeometry x="-200" width="160" height="150" as="geometry" />
        </mxCell>
        <mxCell id="14IpDD7Xq0jnJkIsOJpB-77" value="" style="shape=tableRow;horizontal=0;startSize=0;swimlaneHead=0;swimlaneBody=0;fillColor=none;collapsible=0;dropTarget=0;points=[[0,0.5],[1,0.5]];portConstraint=eastwest;top=0;left=0;right=0;bottom=0;fontStyle=0;fontSize=14;" vertex="1" parent="14IpDD7Xq0jnJkIsOJpB-76">
          <mxGeometry y="30" width="160" height="30" as="geometry" />
        </mxCell>
        <mxCell id="14IpDD7Xq0jnJkIsOJpB-83" value="raw" style="shape=partialRectangle;connectable=0;fillColor=none;top=0;left=0;bottom=0;right=0;editable=1;overflow=hidden;whiteSpace=wrap;html=1;fontStyle=0;fontSize=14;" vertex="1" parent="14IpDD7Xq0jnJkIsOJpB-77">
          <mxGeometry width="160" height="30" as="geometry">
            <mxRectangle width="160" height="30" as="alternateBounds" />
          </mxGeometry>
        </mxCell>
        <mxCell id="14IpDD7Xq0jnJkIsOJpB-80" value="" style="shape=tableRow;horizontal=0;startSize=0;swimlaneHead=0;swimlaneBody=0;fillColor=none;collapsible=0;dropTarget=0;points=[[0,0.5],[1,0.5]];portConstraint=eastwest;top=0;left=0;right=0;bottom=0;fontStyle=0;fontSize=14;swimlaneLine=1;" vertex="1" parent="14IpDD7Xq0jnJkIsOJpB-76">
          <mxGeometry y="60" width="160" height="30" as="geometry" />
        </mxCell>
        <mxCell id="14IpDD7Xq0jnJkIsOJpB-84" value="zipping" style="shape=partialRectangle;connectable=0;fillColor=none;top=0;left=0;bottom=0;right=0;editable=1;overflow=hidden;whiteSpace=wrap;html=1;fontStyle=0;fontSize=14;" vertex="1" parent="14IpDD7Xq0jnJkIsOJpB-80">
          <mxGeometry width="160" height="30" as="geometry">
            <mxRectangle width="160" height="30" as="alternateBounds" />
          </mxGeometry>
        </mxCell>
        <mxCell id="14IpDD7Xq0jnJkIsOJpB-85" style="shape=tableRow;horizontal=0;startSize=0;swimlaneHead=0;swimlaneBody=0;fillColor=none;collapsible=0;dropTarget=0;points=[[0,0.5],[1,0.5]];portConstraint=eastwest;top=0;left=0;right=0;bottom=0;fontStyle=0;fontSize=14;swimlaneLine=1;" vertex="1" parent="14IpDD7Xq0jnJkIsOJpB-76">
          <mxGeometry y="90" width="160" height="30" as="geometry" />
        </mxCell>
        <mxCell id="14IpDD7Xq0jnJkIsOJpB-86" value="zipped" style="shape=partialRectangle;connectable=0;fillColor=none;top=0;left=0;bottom=0;right=0;editable=1;overflow=hidden;whiteSpace=wrap;html=1;fontStyle=0;fontSize=14;" vertex="1" parent="14IpDD7Xq0jnJkIsOJpB-85">
          <mxGeometry width="160" height="30" as="geometry">
            <mxRectangle width="160" height="30" as="alternateBounds" />
          </mxGeometry>
        </mxCell>
        <mxCell id="14IpDD7Xq0jnJkIsOJpB-87" style="shape=tableRow;horizontal=0;startSize=0;swimlaneHead=0;swimlaneBody=0;fillColor=none;collapsible=0;dropTarget=0;points=[[0,0.5],[1,0.5]];portConstraint=eastwest;top=0;left=0;right=0;bottom=0;fontStyle=0;fontSize=14;swimlaneLine=1;" vertex="1" parent="14IpDD7Xq0jnJkIsOJpB-76">
          <mxGeometry y="120" width="160" height="30" as="geometry" />
        </mxCell>
        <mxCell id="14IpDD7Xq0jnJkIsOJpB-88" value="removing" style="shape=partialRectangle;connectable=0;fillColor=none;top=0;left=0;bottom=0;right=0;editable=1;overflow=hidden;whiteSpace=wrap;html=1;fontStyle=0;fontSize=14;" vertex="1" parent="14IpDD7Xq0jnJkIsOJpB-87">
          <mxGeometry width="160" height="30" as="geometry">
            <mxRectangle width="160" height="30" as="alternateBounds" />
          </mxGeometry>
        </mxCell>
        <mxCell id="14IpDD7Xq0jnJkIsOJpB-89" value="dump_object_type" style="shape=table;startSize=30;container=1;collapsible=1;childLayout=tableLayout;fixedRows=1;rowLines=0;align=center;resizeLast=1;html=1;fillColor=#e1d5e7;strokeColor=#9673a6;fontStyle=1;fontSize=16;" vertex="1" parent="1">
          <mxGeometry x="-200" y="190" width="160" height="90" as="geometry" />
        </mxCell>
        <mxCell id="14IpDD7Xq0jnJkIsOJpB-90" value="" style="shape=tableRow;horizontal=0;startSize=0;swimlaneHead=0;swimlaneBody=0;fillColor=none;collapsible=0;dropTarget=0;points=[[0,0.5],[1,0.5]];portConstraint=eastwest;top=0;left=0;right=0;bottom=0;fontStyle=0;fontSize=14;" vertex="1" parent="14IpDD7Xq0jnJkIsOJpB-89">
          <mxGeometry y="30" width="160" height="30" as="geometry" />
        </mxCell>
        <mxCell id="14IpDD7Xq0jnJkIsOJpB-91" value="td" style="shape=partialRectangle;connectable=0;fillColor=none;top=0;left=0;bottom=0;right=0;editable=1;overflow=hidden;whiteSpace=wrap;html=1;fontStyle=0;fontSize=14;" vertex="1" parent="14IpDD7Xq0jnJkIsOJpB-90">
          <mxGeometry width="160" height="30" as="geometry">
            <mxRectangle width="160" height="30" as="alternateBounds" />
          </mxGeometry>
        </mxCell>
        <mxCell id="14IpDD7Xq0jnJkIsOJpB-92" value="" style="shape=tableRow;horizontal=0;startSize=0;swimlaneHead=0;swimlaneBody=0;fillColor=none;collapsible=0;dropTarget=0;points=[[0,0.5],[1,0.5]];portConstraint=eastwest;top=0;left=0;right=0;bottom=0;fontStyle=0;fontSize=14;swimlaneLine=1;" vertex="1" parent="14IpDD7Xq0jnJkIsOJpB-89">
          <mxGeometry y="60" width="160" height="30" as="geometry" />
        </mxCell>
        <mxCell id="14IpDD7Xq0jnJkIsOJpB-93" value="top" style="shape=partialRectangle;connectable=0;fillColor=none;top=0;left=0;bottom=0;right=0;editable=1;overflow=hidden;whiteSpace=wrap;html=1;fontStyle=0;fontSize=14;" vertex="1" parent="14IpDD7Xq0jnJkIsOJpB-92">
          <mxGeometry width="160" height="30" as="geometry">
            <mxRectangle width="160" height="30" as="alternateBounds" />
          </mxGeometry>
        </mxCell>
        <mxCell id="14IpDD7Xq0jnJkIsOJpB-100" value="&lt;span style=&quot;font-size: 24px;&quot;&gt;&lt;b&gt;dumps-collector&lt;/b&gt;&lt;/span&gt;" style="text;html=1;strokeColor=none;fillColor=none;align=left;verticalAlign=middle;whiteSpace=wrap;rounded=0;fontStyle=0" vertex="1" parent="1">
          <mxGeometry x="-200" y="-60" width="200" height="40" as="geometry" />
        </mxCell>
      </root>
    </mxGraphModel>
  </diagram>
</mxfile>
